<svg width="53" height="53" viewBox="0 0 53 53" fill="none" xmlns="http://www.w3.org/2000/svg">
<path d="M46.927 36.1279C44.9837 36.1279 44.1224 35.3771 42.9079 34.3171C41.5608 33.1687 39.8825 31.7112 36.7246 31.7112C33.5446 31.7112 31.8883 33.1687 30.5412 34.3171C29.3266 35.3771 28.4433 36.1279 26.5 36.1279C24.5787 36.1279 23.6954 35.3771 22.4808 34.3171C21.1337 33.1687 19.4554 31.7112 16.2975 31.7112C13.1175 31.7112 11.4391 33.1687 10.0921 34.3171C8.87748 35.3771 8.01621 36.1279 6.07288 36.1279C5.16746 36.1279 4.41663 36.8787 4.41663 37.7842C4.41663 38.7117 5.16746 39.4404 6.07288 39.4404C9.25288 39.4404 10.9091 38.005 12.2562 36.8346C13.4708 35.7746 14.3541 35.0237 16.2975 35.0237C18.2408 35.0237 19.1021 35.7746 20.3167 36.8346C21.6637 38.005 23.342 39.4404 26.5 39.4404C29.68 39.4404 31.3583 38.005 32.7054 36.8346C33.92 35.7746 34.7812 35.0237 36.7246 35.0237C38.6458 35.0237 39.5292 35.7746 40.7437 36.8346C42.0908 38.005 43.7691 39.4404 46.927 39.4404C47.8325 39.4404 48.5833 38.7117 48.5833 37.7842C48.5833 36.8787 47.8325 36.1279 46.927 36.1279Z" fill="#141416"/>
<path d="M46.927 27.0306C44.9837 27.0306 44.1224 26.2577 42.9079 25.2198C41.5608 24.0494 39.8825 22.614 36.7246 22.614C33.5446 22.614 31.8883 24.0494 30.5412 25.2198C29.3266 26.2577 28.4433 27.0306 26.5 27.0306C24.5787 27.0306 23.6954 26.2577 22.4808 25.2198C21.1337 24.0494 19.4554 22.614 16.2975 22.614C13.1175 22.614 11.4391 24.0494 10.0921 25.2198C8.87748 26.2577 8.01621 27.0306 6.07288 27.0306C5.16746 27.0306 4.41663 27.7594 4.41663 28.6869C4.41663 29.5923 5.16746 30.3431 6.07288 30.3431C9.25288 30.3431 10.9091 28.8856 12.2562 27.7152C13.4708 26.6773 14.3541 25.9265 16.2975 25.9265C18.2408 25.9265 19.1021 26.6773 20.3167 27.7152C21.6637 28.8856 23.342 30.3431 26.5 30.3431C29.68 30.3431 31.3583 28.8856 32.7054 27.7152C33.92 26.6773 34.7812 25.9265 36.7246 25.9265C38.6458 25.9265 39.5292 26.6773 40.7437 27.7152C42.0908 28.8856 43.7691 30.3431 46.927 30.3431C47.8325 30.3431 48.5833 29.5923 48.5833 28.6869C48.5833 27.7594 47.8325 27.0306 46.927 27.0306Z" fill="#141416"/>
<path d="M6.07288 21.2886C9.25288 21.2886 10.9091 19.8311 12.2562 18.6828C13.4708 17.6228 14.3541 16.8719 16.2975 16.8719C18.2408 16.8719 19.1021 17.6228 20.3167 18.6828C21.6637 19.8311 23.342 21.2886 26.5 21.2886C29.68 21.2886 31.3583 19.8311 32.7054 18.6828C33.92 17.6228 34.7812 16.8719 36.7246 16.8719C38.6458 16.8719 39.5291 17.6228 40.7437 18.6828C42.0908 19.8311 43.7691 21.2886 46.927 21.2886C47.8325 21.2886 48.5833 20.5378 48.5833 19.6324C48.5833 18.7049 47.8325 17.9761 46.927 17.9761C44.9837 17.9761 44.1224 17.2253 42.9079 16.1653C41.5608 14.9949 39.8825 13.5594 36.7246 13.5594C33.5445 13.5594 31.8883 14.9949 30.5412 16.1653C29.3266 17.2253 28.4433 17.9761 26.5 17.9761C24.5787 17.9761 23.6954 17.2253 22.4808 16.1653C21.1337 14.9949 19.4554 13.5594 16.2975 13.5594C13.1175 13.5594 11.4391 14.9949 10.0921 16.1653C8.87748 17.2253 8.01621 17.9761 6.07288 17.9761C5.16746 17.9761 4.41663 18.7049 4.41663 19.6324C4.41663 20.5378 5.16746 21.2886 6.07288 21.2886Z" fill="#141416"/>
</svg>
